<svg width="276" height="87" viewBox="0 0 276 87" fill="none" xmlns="http://www.w3.org/2000/svg">
<path d="M16.0888 39.0921H15.7609L15.6302 39.3929C15.5252 39.6346 15.4139 39.8895 15.2969 40.1577C13.4306 44.4348 10.0989 52.07 7.30882 62.6801C7.21787 62.6596 7.12586 62.6383 7.03226 62.6167C6.23849 62.4333 5.32989 62.2234 3.97925 62.2234C2.73099 62.2234 1.75744 62.4202 0.91298 62.5909C0.893682 62.5948 0.874451 62.5986 0.855285 62.6025C8.87345 45.1281 21.7795 16.6586 28.1457 0.580523C28.21 0.591108 28.2753 0.602197 28.3419 0.613505C28.8174 0.694277 29.359 0.786277 30.0877 0.786277C30.7706 0.786277 31.2288 0.725883 31.7782 0.595949C35.3047 10.1421 41.927 25.6211 47.7226 38.8234C50.6648 45.5257 53.3958 51.6453 55.4038 56.111C56.4078 58.3438 57.2312 60.1633 57.8099 61.4356C58.0215 61.9009 58.2006 62.2932 58.3438 62.6058C57.0781 62.3914 55.718 62.2234 53.8774 62.2234C51.6867 62.2234 50.0308 62.469 48.451 62.7078C45.4927 52.7197 42.1136 45.3035 39.863 40.3641C39.7091 40.0263 39.5605 39.7001 39.4176 39.3854L39.2845 39.0921H38.9623H16.0888ZM17.432 34.9024L17.1372 35.5976H17.8923H37.1588H37.9219L37.6172 34.898L27.8552 12.4824L27.3906 11.4157L26.9364 12.4869L17.432 34.9024Z" stroke="white"/>
<path d="M75.7759 53.4148L75.7758 53.4148L75.7808 53.4229C80.0701 60.4338 86.1977 60.7043 88.8607 60.7043C97.5602 60.7043 101.855 55.5981 103.439 53.4671L103.731 53.5364C103.35 55.4482 103.284 56.7431 103.226 57.8948C103.218 58.0477 103.21 58.198 103.202 58.347C99.3736 61.9611 94.0268 63.9699 86.8854 63.9699C80.122 63.9699 74.7213 61.8376 71.0111 58.0406C67.2996 54.2422 65.2275 48.7242 65.2275 41.854C65.2275 35.6992 66.9217 30.0852 70.3966 26.0184C73.8615 21.9633 79.1404 19.3945 86.4274 19.3945C91.3848 19.3945 95.0476 20.4746 97.7591 22.1391C100.47 23.8031 102.262 26.0711 103.448 28.5002C105.682 33.0766 105.752 38.198 105.717 40.8387H73.7739H73.2739V41.3387V41.3666C73.2739 43.8822 73.2738 49.1465 75.7759 53.4148ZM73.3331 37.4871L73.2849 38.0312H73.8312H97.1628H97.6628V37.5312V37.5183C97.6628 36.0237 97.6628 32.1958 96.2705 28.728C95.5695 26.9818 94.5062 25.3022 92.8903 24.0592C91.2684 22.8114 89.124 22.0303 86.3128 22.0303C82.2316 22.0303 79.1621 23.5829 77.0256 26.3315C74.9071 29.0569 73.7382 32.9151 73.3331 37.4871Z" stroke="white"/>
<path d="M145.329 49.9524V49.9556C145.329 53.2775 144.167 56.7798 141.5 59.4502C138.838 62.1154 134.631 63.9984 128.452 63.9984C121.916 63.9984 117.242 61.5138 115.732 60.5527C116.265 59.4587 116.686 58.0862 116.999 56.8446C117.298 55.6585 117.505 54.5622 117.615 53.8858L117.964 53.8031C118.628 55.3747 119.679 57.7046 122.899 59.631C125.232 61.037 127.706 61.42 129.74 61.42C132.159 61.42 134.553 60.8389 136.357 59.5522C138.182 58.2513 139.373 56.2478 139.373 53.5054C139.373 52.1691 139.173 51.0555 138.688 50.0964C138.201 49.1329 137.448 48.3679 136.416 47.6939C134.4 46.3786 131.203 45.3451 126.545 43.8394L126.459 43.8116C124.531 43.1879 122.035 42.1973 120.024 40.4135C118.031 38.6455 116.499 36.0866 116.499 32.2636C116.499 29.7921 117.268 26.5539 119.526 23.9415C121.771 21.3452 125.539 19.3086 131.658 19.3086C137.403 19.3086 140.858 20.9596 142.972 22.0296C142.197 24.1367 141.631 26.168 141.34 28.8722H141.007C140.638 27.47 139.934 25.2993 137.384 23.5516C135.361 22.1129 132.707 21.9157 131.229 21.9157C128.397 21.9157 126.172 22.661 124.648 23.9686C123.117 25.2823 122.341 27.1226 122.341 29.2005C122.341 32.0236 123.796 33.9499 125.621 35.2508C127.43 36.54 129.628 37.2381 131.219 37.6432C135.268 38.695 138.805 39.6281 141.34 41.3813C142.594 42.2483 143.59 43.31 144.274 44.6808C144.958 46.0539 145.343 47.7658 145.329 49.9524Z" stroke="white"/>
<path d="M155.49 41.6535C155.49 34.7262 157.804 29.1508 161.745 25.3072C165.688 21.4619 171.302 19.3086 177.978 19.3086C186.45 19.3086 192.224 22.0924 195.885 26.1707C199.556 30.2595 201.153 35.7056 201.153 41.1096C201.153 48.175 198.707 53.8942 194.611 57.8477C190.512 61.8035 184.724 64.0271 177.978 64.0271C173.231 64.0271 167.604 62.9513 163.177 59.6359C158.775 56.3393 155.49 50.7785 155.49 41.6535ZM163.737 41.3959C163.737 47.7442 165.124 52.7416 167.623 56.1655C170.134 59.6071 173.742 61.42 178.064 61.42C182.562 61.42 186.303 59.4677 188.904 55.9762C191.494 52.4984 192.935 47.5237 192.935 41.4818C192.935 37.9256 192.396 33.0668 190.335 29.0783C189.302 27.0779 187.879 25.2828 185.937 23.9884C183.992 22.6916 181.553 21.9157 178.522 21.9157C174.849 21.9157 172.06 22.9635 169.956 24.6046C167.859 26.2405 166.475 28.4402 165.559 30.6981C163.737 35.1936 163.737 40.0167 163.737 41.3888V41.3959Z" stroke="white"/>
<path d="M220.964 27.3969V29.1773L221.891 27.6572C222.602 26.4916 223.894 24.3899 226.223 22.5738C228.544 20.7645 231.915 19.2227 236.809 19.2227C241.217 19.2227 246.115 20.8285 249.903 24.3936C253.682 27.9497 256.391 33.4877 256.377 41.4236V41.4244C256.377 48.4498 254.213 54.1269 250.635 58.042C247.061 61.9545 242.044 64.1415 236.265 64.1415C227.961 64.1415 223.369 59.5944 221.987 56.071L221.022 56.2536C221.022 58.036 221.02 59.725 221.019 61.3325C221.01 72.1447 221.004 79.2692 221.437 86.3166C220.291 86.0501 219.135 85.9272 217.285 85.9272C215.34 85.9272 214.17 86.0531 212.959 86.3249C213.672 74.7968 213.92 63.1912 213.92 51.6446C213.92 43.5274 213.754 32.6404 213.476 19.8035C214.612 20.0364 215.91 20.2246 217.399 20.2246C218.808 20.2246 220.149 20.0181 221.289 19.7994C220.965 24.2348 220.964 25.5807 220.964 27.3969ZM248.101 41.8588V41.8539C248.101 34.9517 246.459 30.1767 244.009 27.1165C241.553 24.0492 238.316 22.7458 235.234 22.7458C230.173 22.7458 226.885 24.8878 224.71 27.628C223.766 28.793 222.8 30.2212 222.076 32.506C221.354 34.7815 220.878 37.8849 220.878 42.3978C220.878 46.4126 221.333 49.2119 222.047 51.3049C222.763 53.4052 223.732 54.7688 224.718 55.9173C227.128 58.8315 230.358 60.5325 234.662 60.5325C237.996 60.5325 240.531 59.5424 242.442 57.9864C244.345 56.437 245.6 54.3525 246.429 52.2078C248.044 48.0299 248.086 43.5165 248.1 41.9651C248.101 41.9279 248.101 41.8925 248.101 41.8588Z" fill="white" fill-opacity="0.13" stroke="white"/>
<path d="M74.7891 8.11475H98.7811V9.94889H74.7891V8.11475Z" stroke="white"/>
<path d="M264.677 58.286C264.677 55.2175 267.139 52.8601 270.074 52.8601C273.113 52.8601 275.473 55.2642 275.5 58.2882C275.499 61.3318 273.089 63.712 270.103 63.712C267.085 63.712 264.677 61.3291 264.677 58.286ZM264.793 58.286C264.793 61.3292 267.04 63.6528 270.074 63.6528C273.102 63.6528 275.384 61.3638 275.384 58.286C275.384 55.3672 273.204 52.9193 270.074 52.9193C267.067 52.9193 264.793 55.302 264.793 58.286Z" stroke="white"/>
<path d="M268.166 60.907C268.211 60.2623 268.227 59.4229 268.227 57.9998C268.227 56.7269 268.193 55.9334 268.165 55.3149C268.25 55.3169 268.337 55.3184 268.429 55.3194C268.401 56.1782 268.401 56.9568 268.401 57.7002C268.401 57.7231 268.401 57.7459 268.401 57.7688V57.7707V58.2002L268.166 60.907ZM268.166 60.907C268.191 60.9066 268.216 60.9065 268.242 60.9065C268.323 60.9065 268.393 60.9092 268.456 60.9134M268.166 60.907L268.456 60.9134M268.456 60.9134C268.402 59.8246 268.401 59.1278 268.401 58.2707L268.456 60.9134ZM272.122 56.3966C272.122 56.8107 271.943 57.0602 271.669 57.2318C271.775 57.0231 271.834 56.7821 271.834 56.5111C271.834 56.1225 271.727 55.7851 271.511 55.5154C271.719 55.5903 271.857 55.6846 271.947 55.793C272.043 55.9092 272.122 56.0882 272.122 56.3966ZM269.817 58.2313C269.858 58.2269 269.898 58.2219 269.939 58.2164L270.049 58.36C270.382 58.7979 271.484 60.0592 272.26 60.9207C272.18 60.9266 272.096 60.9339 272.007 60.9416C271.193 59.7975 270.497 59.0056 269.955 58.3882C269.908 58.3347 269.862 58.2824 269.817 58.2313Z" stroke="white"/>
</svg>
